<?xml version="1.0" encoding="utf-8"?>
<!-- Generator: Adobe Illustrator 19.0.1, SVG Export Plug-In . SVG Version: 6.00 Build 0)  -->
<svg version="1.1" id="Слой_1" xmlns="http://www.w3.org/2000/svg" xmlns:xlink="http://www.w3.org/1999/xlink" x="0px" y="0px"
	 viewBox="0 0 2007.2 1014.1" style="enable-background:new 0 0 2007.2 1014.1;" xml:space="preserve">
<style type="text/css">
	.st0{fill:#587C8D;}
	.st1{opacity:0.3;}
	.st2{fill:none;stroke:#666699;stroke-width:5;stroke-linecap:round;stroke-linejoin:round;}
	.st3{fill:none;stroke:#666699;stroke-width:5;stroke-linecap:round;stroke-linejoin:round;stroke-dasharray:1.0009,15.0128;}
</style>
<path class="st0" d="M1931.4,562.2c-0.3,0.2-11.1,7.1-16.8,10.7l-1.9,1.2l-0.5,2.1l-1.9,8.2l-2.7-5.2l-12.6,8.1l3.6,4.6l-8.2-1.7
	l-2.2-0.4l-1.9,1.2l-16.8,10.8l-4.6,2.9l2.9,4.6l10.3,16l2.9,4.6l4.6-2.9c0.3-0.2,16.8-10.7,16.8-10.7l1.9-1.2l0.5-2.2l1.9-8.5
	l0.3-1.2l2.1,2.8l9.4-6l-1.6-3.1l1.2,0.3l8.6,1.8l2.2,0.5l1.9-1.2l16.8-10.8l4.6-2.9l-2.9-4.6l-10.3-16l-2.9-4.6L1931.4,562.2z
	 M1901.6,603l-1.9,8.5l-16.8,10.8l-10.3-16l16.8-10.8l8.6,1.8L1901.6,603z M1944.6,582.8l-16.8,10.8l-8.6-1.8l-3.6-5.7l1.9-8.5
	l16.8-10.8L1944.6,582.8z M1924.8,607.5c-1.1,5-6.1,8.2-11.1,7.1c-2-0.4-3.9,0.8-4.3,2.8c-0.4,2,0.8,3.9,2.8,4.3
	c8.9,1.9,17.8-3.7,19.7-12.6c0.4-2-0.8-3.9-2.8-4.3C1927.1,604.3,1925.2,605.6,1924.8,607.5 M1943,611.5
	C1943,611.5,1943,611.5,1943,611.5C1943.1,611.5,1943.1,611.5,1943,611.5C1943.1,611.5,1943,611.5,1943,611.5 M1940.7,610.5
	c-0.1,0-0.3,0-0.4,0c0,0,0,0,0,0c0,0,0,0,0,0c-0.1,0-0.3,0-0.4,0.1c0,0,0.1,0,0.1,0c0,0-0.1,0-0.1,0c0,0-0.1,0-0.1,0c0,0,0,0,0,0
	c-0.3,0.1-0.5,0.1-0.8,0.3c-0.2,0.1-0.3,0.2-0.5,0.3c-0.1,0.1-0.2,0.2-0.3,0.3c-0.1,0-0.1,0.1-0.2,0.2c-0.2,0.2-0.3,0.3-0.4,0.5
	c-0.2,0.4-0.4,0.8-0.5,1.2l0,0c-1.2,5.3-4.3,9.6-8.6,12.3c-4.2,2.7-9.4,3.8-14.6,2.6c-1.5-0.4-3,0.2-3.9,1.6c-1.1,1.7-0.6,3.9,1.1,5
	c0.8,0.5,1.2,0.5,1.2,0.5c14.4,3.2,28.7-6,31.9-20.4l0,0c0-0.2,0.1-0.5,0.1-0.7c0-0.1,0-0.2,0-0.3c0,0,0,0,0,0c0,0,0,0,0,0
	c0,0,0,0,0,0c0,0,0-0.1,0-0.1c0,0,0,0.1,0,0.1c0-0.1,0-0.2-0.1-0.4c0,0,0,0,0,0c0,0,0,0,0,0c0-0.1,0-0.2-0.1-0.2c0,0,0,0.1,0,0.1
	c0-0.1-0.1-0.3-0.1-0.4c0,0,0,0.1,0,0.1c0-0.1,0-0.1-0.1-0.2c0,0,0,0.1,0,0.1c0-0.1-0.1-0.3-0.2-0.4c0,0,0,0.1,0,0.1
	c0,0,0-0.1,0-0.1c0,0,0,0,0-0.1c0-0.1,0-0.1-0.1-0.1c0-0.1-0.1-0.1-0.1-0.1c-0.1-0.1-0.2-0.2-0.3-0.3c-0.1-0.1-0.2-0.2-0.3-0.3
	c0,0,0,0-0.1,0c-0.1-0.1-0.2-0.1-0.3-0.2c0,0-0.1,0-0.1-0.1c0,0,0,0,0,0c-0.1-0.1-0.2-0.1-0.3-0.2c0,0,0,0,0.1,0
	c0,0-0.1-0.1-0.1-0.1c-0.1-0.1-0.2-0.1-0.3-0.1c-0.2-0.1-0.4-0.1-0.6-0.2l0,0l0,0C1941.1,610.6,1940.9,610.5,1940.7,610.5
	 M1943.8,612.4L1943.8,612.4L1943.8,612.4C1943.8,612.4,1943.8,612.4,1943.8,612.4 M1943.3,611.7
	C1943.3,611.7,1943.3,611.7,1943.3,611.7C1943.3,611.7,1943.3,611.7,1943.3,611.7C1943.3,611.8,1943.3,611.8,1943.3,611.7
	C1943.3,611.8,1943.3,611.7,1943.3,611.7 M1941.9,610.8C1941.9,610.8,1942,610.8,1941.9,610.8c0.2,0.1,0.3,0.1,0.4,0.2
	C1942.2,610.9,1942,610.8,1941.9,610.8 M1942.3,611C1942.3,610.9,1942.3,610.9,1942.3,611C1942.3,610.9,1942.3,610.9,1942.3,611
	 M1943,611.5c-0.1-0.1-0.2-0.1-0.3-0.2C1942.8,611.3,1942.9,611.4,1943,611.5C1943,611.4,1943,611.5,1943,611.5 M1942.7,611.2
	L1942.7,611.2C1942.8,611.2,1942.8,611.2,1942.7,611.2C1942.8,611.2,1942.7,611.2,1942.7,611.2 M1938.2,611.5L1938.2,611.5
	C1938.2,611.5,1938.2,611.4,1938.2,611.5C1938.2,611.4,1938.2,611.4,1938.2,611.5 M1938.5,611.2
	C1938.5,611.2,1938.5,611.2,1938.5,611.2C1938.5,611.2,1938.6,611.2,1938.5,611.2C1938.5,611.2,1938.5,611.2,1938.5,611.2
	 M1939,610.9C1939,610.9,1939,610.9,1939,610.9C1939.1,610.9,1939.1,610.9,1939,610.9C1939.1,610.9,1939,610.9,1939,610.9
	 M1940.1,610.6C1940,610.6,1940,610.6,1940.1,610.6C1940,610.6,1940.1,610.6,1940.1,610.6C1940.1,610.6,1940.1,610.6,1940.1,610.6
	 M1940.2,610.5c0,0-0.1,0-0.1,0C1940.2,610.6,1940.2,610.6,1940.2,610.5L1940.2,610.5z M1940.7,610.5L1940.7,610.5
	C1940.7,610.5,1940.7,610.5,1940.7,610.5C1940.7,610.5,1940.7,610.5,1940.7,610.5 M1944.2,613.8L1944.2,613.8
	C1944.2,613.8,1944.2,613.9,1944.2,613.8C1944.2,613.9,1944.2,613.8,1944.2,613.8 M1944.2,614.3c0-0.1,0-0.2,0-0.4
	c0,0.1,0,0.2,0,0.3C1944.2,614.2,1944.2,614.2,1944.2,614.3 M1937.6,612.1L1937.6,612.1L1937.6,612.1L1937.6,612.1z M1938,611.6
	L1938,611.6C1938,611.6,1938,611.6,1938,611.6C1938,611.6,1938,611.6,1938,611.6"/>
<path class="st0" d="M38.1,270.7c0.1,0.2,4.4,9.9,6.6,15l0.7,1.7l1.7,0.7l6.4,2.5l-4.5,1.6l5,11.2l4.2-2.3l-2.4,6.5l-0.6,1.7
	l0.7,1.7l6.6,15l1.8,4.1l4.1-1.8l14.3-6.3l4.1-1.8L85,316c-0.1-0.2-6.6-15-6.6-15l-0.7-1.7l-1.7-0.7l-6.7-2.6l-0.9-0.4l2.5-1.4
	l-3.7-8.4l-2.7,0.9l0.4-0.9l2.5-6.7l0.6-1.7l-0.7-1.7l-6.6-15l-1.8-4.1l-4.1,1.8l-14.3,6.3l-4.1,1.8L38.1,270.7z M67.6,300.1
	l6.7,2.7l6.6,15l-14.3,6.3l-6.6-15l2.5-6.7L67.6,300.1z M56.5,262.5l6.6,15l-2.5,6.7l-5.1,2.2l-6.7-2.6l-6.6-15L56.5,262.5z
	 M74.1,281.8c4,1.5,5.9,6,4.4,9.9c-0.6,1.5,0.2,3.3,1.7,3.9c1.5,0.6,3.3-0.2,3.9-1.7c2.7-7-0.8-14.9-7.8-17.7
	c-1.5-0.6-3.3,0.2-3.8,1.7C71.8,279.5,72.6,281.2,74.1,281.8 M79.6,267.4C79.6,267.4,79.6,267.4,79.6,267.4
	C79.6,267.4,79.6,267.4,79.6,267.4C79.7,267.4,79.6,267.4,79.6,267.4 M78.6,269.2c0,0.1,0,0.2,0,0.3c0,0,0,0,0,0c0,0,0,0,0,0
	c0,0.1,0,0.2,0,0.3c0,0,0-0.1,0-0.1c0,0,0,0.1,0,0.1c0,0,0,0.1,0,0.1c0,0,0,0,0,0c0,0.2,0.1,0.4,0.1,0.7c0.1,0.2,0.1,0.3,0.2,0.4
	c0.1,0.1,0.1,0.2,0.2,0.3c0,0.1,0.1,0.1,0.1,0.2c0.1,0.1,0.2,0.3,0.4,0.4c0.3,0.2,0.6,0.4,0.9,0.6l0,0c4.2,1.6,7.2,4.7,8.9,8.5
	c1.7,3.8,1.9,8.1,0.3,12.3c-0.5,1.2-0.2,2.5,0.8,3.4c1.2,1.1,3.1,1,4.2-0.3c0.5-0.6,0.5-0.9,0.5-0.9c4.4-11.4-1.3-24.1-12.6-28.5
	l0,0c-0.2-0.1-0.4-0.1-0.6-0.1c-0.1,0-0.2,0-0.3,0c0,0,0,0,0,0c0,0,0,0,0,0c0,0,0,0,0,0c0,0-0.1,0-0.1,0c0,0,0,0,0.1,0
	c-0.1,0-0.2,0-0.3,0c0,0,0,0,0,0c0,0,0,0,0,0c-0.1,0-0.1,0-0.2,0c0,0,0,0,0.1,0c-0.1,0-0.2,0-0.4,0.1c0,0,0.1,0,0.1,0
	c0,0-0.1,0-0.2,0c0,0,0,0,0.1,0c-0.1,0-0.2,0.1-0.4,0.1c0,0,0,0,0.1,0c0,0-0.1,0-0.1,0c0,0,0,0-0.1,0c0,0-0.1,0-0.1,0.1
	c0,0-0.1,0-0.1,0.1c-0.1,0-0.2,0.1-0.3,0.2c-0.1,0.1-0.2,0.1-0.3,0.2c0,0,0,0,0,0c-0.1,0.1-0.1,0.1-0.2,0.2c0,0,0,0-0.1,0.1
	c0,0,0,0,0,0c-0.1,0.1-0.1,0.1-0.2,0.2c0,0,0,0,0-0.1c0,0-0.1,0.1-0.1,0.1c-0.1,0.1-0.1,0.1-0.2,0.2c-0.1,0.1-0.2,0.3-0.2,0.5l0,0
	l0,0C78.6,268.9,78.6,269.1,78.6,269.2 M80.5,266.9L80.5,266.9L80.5,266.9C80.5,266.9,80.5,266.9,80.5,266.9 M79.9,267.2
	C79.9,267.3,79.9,267.3,79.9,267.2C79.9,267.3,79.9,267.2,79.9,267.2C79.9,267.2,79.9,267.2,79.9,267.2
	C79.9,267.2,79.9,267.2,79.9,267.2 M78.9,268.2C78.9,268.2,79,268.2,78.9,268.2c0.1-0.1,0.1-0.2,0.2-0.3
	C79,268.1,79,268.2,78.9,268.2 M79.1,268C79.1,268,79.1,268,79.1,268C79.1,268,79.1,268,79.1,268 M79.6,267.4
	c-0.1,0.1-0.1,0.1-0.2,0.2C79.5,267.6,79.5,267.5,79.6,267.4C79.6,267.4,79.6,267.4,79.6,267.4 M79.4,267.6L79.4,267.6
	C79.4,267.6,79.4,267.6,79.4,267.6C79.4,267.6,79.4,267.6,79.4,267.6 M79,271.4L79,271.4C79,271.4,79,271.3,79,271.4
	C79,271.3,79,271.4,79,271.4 M78.9,271.1C78.8,271.1,78.8,271,78.9,271.1C78.8,271,78.8,271,78.9,271.1
	C78.8,271,78.8,271.1,78.9,271.1 M78.7,270.6C78.7,270.6,78.7,270.6,78.7,270.6C78.7,270.6,78.6,270.6,78.7,270.6
	C78.7,270.6,78.7,270.6,78.7,270.6 M78.5,269.7C78.5,269.7,78.5,269.8,78.5,269.7C78.5,269.7,78.5,269.7,78.5,269.7
	C78.5,269.7,78.5,269.7,78.5,269.7 M78.5,269.6c0,0,0,0.1,0,0.1C78.5,269.6,78.5,269.6,78.5,269.6L78.5,269.6z M78.6,269.2
	L78.6,269.2C78.6,269.2,78.6,269.2,78.6,269.2C78.6,269.2,78.6,269.2,78.6,269.2 M81.7,266.8L81.7,266.8
	C81.7,266.8,81.7,266.8,81.7,266.8C81.7,266.8,81.7,266.8,81.7,266.8 M82.1,266.8c-0.1,0-0.2,0-0.3,0c0.1,0,0.2,0,0.2,0
	C82,266.8,82,266.8,82.1,266.8 M79.5,271.9L79.5,271.9L79.5,271.9L79.5,271.9z M79.1,271.5L79.1,271.5
	C79.1,271.5,79.1,271.5,79.1,271.5L79.1,271.5"/>
<g class="st1">
	<g>
		<path class="st2" d="M73.9,260.2c0,0,0-0.2,0.1-0.5"/>
		<path class="st3" d="M77,245c13.3-58.5,72.9-264.4,248.2-224.8c204,46,204,248,204,248s52,374,362,406s560-166,560-308
			s-202-188-310-202s-198,36-222,146c-22.4,102.5-132,666,234,692s272.8-607.9,566-586c191.4,14.3,189.7,130.4,185.4,162.1"/>
		<path class="st2" d="M1903.4,585.8c-0.1,0.2-0.1,0.4-0.1,0.5"/>
	</g>
</g>
</svg>
